<svg viewBox="0 0 64 64" xmlns="http://www.w3.org/2000/svg" id="Confused-Face--Streamline-Emoji" height="64" width="64">
  <desc>
    Confused Face Streamline Emoji: https://streamlinehq.com
  </desc>
  <path d="M5.333333333333333 28.666666666666664a26.666666666666664 26.666666666666664 0 1 0 53.33333333333333 0 26.666666666666664 26.666666666666664 0 1 0 -53.33333333333333 0Z" fill="#ffe500" stroke-width="1"></path>
  <path d="M32 2a26.666666666666664 26.666666666666664 0 1 0 26.666666666666664 26.666666666666664 26.666666666666664 26.666666666666664 0 0 0 -26.666666666666664 -26.666666666666664Zm0 49.33333333333333a24.333333333333332 24.333333333333332 0 1 1 24.333333333333332 -24.333333333333332A24.333333333333332 24.333333333333332 0 0 1 32 51.33333333333333Z" fill="#ebcb00" stroke-width="1"></path>
  <path d="M24 7.333333333333333a8 2 0 1 0 16 0 8 2 0 1 0 -16 0Z" fill="#fff48c" stroke-width="1"></path>
  <path d="M5.333333333333333 28.666666666666664a26.666666666666664 26.666666666666664 0 1 0 53.33333333333333 0 26.666666666666664 26.666666666666664 0 1 0 -53.33333333333333 0Z" fill="none" stroke="#45413c" stroke-linecap="round" stroke-linejoin="round" stroke-width="1"></path>
  <path d="M10.666666666666666 60.666666666666664a21.333333333333332 2 0 1 0 42.666666666666664 0 21.333333333333332 2 0 1 0 -42.666666666666664 0Z" fill="#45413c" opacity=".15" stroke-width="1"></path>
  <path d="M20 28.666666666666664a1.3333333333333333 1.3333333333333333 0 1 1 -1.3333333333333333 -1.3333333333333333 1.3333333333333333 1.3333333333333333 0 0 1 1.3333333333333333 1.3333333333333333Z" fill="#45413c" stroke="#45413c" stroke-linecap="round" stroke-linejoin="round" stroke-width="1"></path>
  <path d="M12.666666666666666 35.33333333333333c0 1.1066666666666665 1.4933333333333334 2 3.333333333333333 2s3.333333333333333 -0.8933333333333333 3.333333333333333 -2S17.84 33.33333333333333 16 33.33333333333333s-3.333333333333333 0.8933333333333333 -3.333333333333333 2Z" fill="#ffaa54" stroke-width="1"></path>
  <path d="M44 28.666666666666664a1.3333333333333333 1.3333333333333333 0 1 0 1.3333333333333333 -1.3333333333333333 1.3333333333333333 1.3333333333333333 0 0 0 -1.3333333333333333 1.3333333333333333Z" fill="#45413c" stroke="#45413c" stroke-linecap="round" stroke-linejoin="round" stroke-width="1"></path>
  <path d="M51.33333333333333 35.33333333333333c0 1.1066666666666665 -1.4933333333333334 2 -3.333333333333333 2s-3.333333333333333 -0.8933333333333333 -3.333333333333333 -2S46.16 33.33333333333333 48 33.33333333333333s3.333333333333333 0.8933333333333333 3.333333333333333 2Z" fill="#ffaa54" stroke-width="1"></path>
  <path d="M39.49333333333333 40.89333333333333c-3.493333333333333 -1.2 -8.879999999999999 0 -13.12 3.1199999999999997" fill="none" stroke="#45413c" stroke-linecap="round" stroke-linejoin="round" stroke-width="1"></path>
</svg>