<svg xmlns="http://www.w3.org/2000/svg" viewBox="0 0 32 32" id="Locomotive--Streamline-Twemoji" height="32" width="32">
  <desc>
    Locomotive Streamline Emoji: https://streamlinehq.com
  </desc>
  <path fill="#939598" d="M0.31999999999999995 28.63111111111111h31.36v1.7422222222222221H0.31999999999999995Z" stroke-width="0.8889"></path>
  <path fill="#231f20" d="M5.546666666666667 22.533333333333335h25.26222222222222v4.355555555555556H5.546666666666667Z" stroke-width="0.8889"></path>
  <path fill="#58595b" d="M3.803555555555555 26.888888888888886c0 2.011733333333333 2.177777777777778 3.269066666666667 3.92 2.2632 0.8086222222222221 -0.4668444444444444 1.3066666666666666 -1.329511111111111 1.3066666666666666 -2.2632 0 -2.011733333333333 -2.177777777777778 -3.269066666666667 -3.92 -2.2632 -0.8085333333333332 0.4668444444444444 -1.3066666666666666 1.329511111111111 -1.3066666666666666 2.2632" stroke-width="0.8889"></path>
  <path fill="#58595b" d="M9.030222222222223 26.888888888888886c0 2.011733333333333 2.177777777777778 3.269066666666667 3.92 2.2632 0.8086222222222221 -0.4668444444444444 1.3066666666666666 -1.329511111111111 1.3066666666666666 -2.2632 0 -2.011733333333333 -2.177777777777778 -3.269066666666667 -3.92 -2.2632 -0.8085333333333332 0.4668444444444444 -1.3066666666666666 1.329511111111111 -1.3066666666666666 2.2632" stroke-width="0.8889"></path>
  <path fill="#a0041e" d="M5.110222222222221 26.888888888888886c0 1.0058666666666665 1.088888888888889 1.6345777777777777 1.96 1.1316444444444442 0.4042666666666666 -0.2334222222222222 0.6533333333333333 -0.6648 0.6533333333333333 -1.1316444444444442 0 -1.0058666666666665 -1.088888888888889 -1.6345777777777777 -1.96 -1.1316444444444442 -0.4042666666666666 0.2334222222222222 -0.6533333333333333 0.6648 -0.6533333333333333 1.1316444444444442" stroke-width="0.8889"></path>
  <path fill="#a0041e" d="M10.336888888888888 26.888888888888886c0 1.0058666666666665 1.088888888888889 1.6345777777777777 1.96 1.1316444444444442 0.4042666666666666 -0.2334222222222222 0.6533333333333333 -0.6648 0.6533333333333333 -1.1316444444444442 0 -1.0058666666666665 -1.088888888888889 -1.6345777777777777 -1.96 -1.1316444444444442 -0.4042666666666666 0.2334222222222222 -0.6533333333333333 0.6648 -0.6533333333333333 1.1316444444444442" stroke-width="0.8889"></path>
  <path fill="#dd2e44" d="M4.6755555555555555 27.759999999999998H1.191111111111111c-0.8711111111111111 0 -1.3066666666666666 -0.43555555555555553 0 -1.7422222222222221l3.4844444444444442 -3.4844444444444442c0.8711111111111111 -0.8711111111111111 1.7422222222222221 -1.743111111111111 1.7422222222222221 0v3.4844444444444442c0 1.7422222222222221 -0.0008888888888888888 1.7422222222222221 -1.7422222222222221 1.7422222222222221Z" stroke-width="0.8889"></path>
  <path fill="#231f20" d="M7.288888888888888 16.435555555555553c0 2.8859555555555554 -1.1698666666666666 5.226666666666667 -2.6133333333333333 5.226666666666667s-2.6133333333333333 -2.340711111111111 -2.6133333333333333 -5.226666666666667c0 -2.8868444444444443 1.1698666666666666 -5.226666666666667 2.6133333333333333 -5.226666666666667s2.6133333333333333 2.339822222222222 2.6133333333333333 5.226666666666667Z" stroke-width="0.8889"></path>
  <path fill="#6d6e71" d="M9.902222222222223 12.08H6.417777777777777L4.6755555555555555 5.111111111111111h6.9688888888888885Z" stroke-width="0.8889"></path>
  <path fill="#414042" d="M22.968888888888888 20.79111111111111c0 0.9616888888888889 -0.7805333333333333 1.7422222222222221 -1.7422222222222221 1.7422222222222221H5.546666666666667c-0.9616888888888889 0 -1.7422222222222221 -0.7805333333333333 -1.7422222222222221 -1.7422222222222221v-8.711111111111112c0 -0.9616888888888889 0.7805333333333333 -1.7422222222222221 1.7422222222222221 -1.7422222222222221h15.68c0.9616888888888889 0 1.7422222222222221 0.7805333333333333 1.7422222222222221 1.7422222222222221v8.711111111111112Z" stroke-width="0.8889"></path>
  <path fill="#c1694f" d="M11.644444444444444 21.662222222222223c0 0.4816888888888889 -0.3902222222222222 0.8711111111111111 -0.8711111111111111 0.8711111111111111s-0.8711111111111111 -0.38942222222222217 -0.8711111111111111 -0.8711111111111111V10.337777777777777c0 -0.4808888888888889 0.3902222222222222 -0.8711111111111111 0.8711111111111111 -0.8711111111111111s0.8711111111111111 0.3902222222222222 0.8711111111111111 0.8711111111111111v11.324444444444444Zm5.226666666666667 0c0 0.4816888888888889 -0.38942222222222217 0.8711111111111111 -0.8711111111111111 0.8711111111111111s-0.8711111111111111 -0.38942222222222217 -0.8711111111111111 -0.8711111111111111V10.337777777777777c0 -0.4808888888888889 0.38942222222222217 -0.8711111111111111 0.8711111111111111 -0.8711111111111111s0.8711111111111111 0.3902222222222222 0.8711111111111111 0.8711111111111111v11.324444444444444Z" stroke-width="0.8889"></path>
  <path fill="#808285" d="M31.68 21.662222222222223c0 0.4816888888888889 -0.38942222222222217 0.8711111111111111 -0.8711111111111111 0.8711111111111111H6.417777777777777c-0.4808888888888889 0 -0.8711111111111111 -0.38942222222222217 -0.8711111111111111 -0.8711111111111111s0.3902222222222222 -0.8711111111111111 0.8711111111111111 -0.8711111111111111h24.391111111111112c0.4816888888888889 0 0.8711111111111111 0.38942222222222217 0.8711111111111111 0.8711111111111111Z" stroke-width="0.8889"></path>
  <path fill="#58595b" d="M22.967999999999996 26.017777777777777c0 2.682311111111111 2.9037333333333333 4.358755555555556 5.226666666666667 3.0176 1.0781333333333334 -0.6224 1.7422222222222221 -1.772711111111111 1.7422222222222221 -3.0176 0 -2.682311111111111 -2.9036444444444443 -4.358755555555556 -5.226666666666667 -3.0176 -1.0780444444444446 0.6224 -1.7422222222222221 1.772711111111111 -1.7422222222222221 3.0176" stroke-width="0.8889"></path>
  <path fill="#58595b" d="M15.999111111111109 26.017777777777777c0 2.682311111111111 2.9037333333333333 4.358755555555556 5.226666666666667 3.0176 1.0781333333333334 -0.6224 1.7422222222222221 -1.772711111111111 1.7422222222222221 -3.0176 0 -2.682311111111111 -2.9036444444444443 -4.358755555555556 -5.226666666666667 -3.0176 -1.0780444444444446 0.6224 -1.7422222222222221 1.772711111111111 -1.7422222222222221 3.0176" stroke-width="0.8889"></path>
  <path fill="#a0041e" d="M24.71022222222222 26.017777777777777c0 1.3411555555555554 1.451911111111111 2.179377777777778 2.6133333333333333 1.5088 0.5390222222222223 -0.3112 0.8711111111111111 -0.8864 0.8711111111111111 -1.5088 0 -1.3411555555555554 -1.4518222222222221 -2.179377777777778 -2.6133333333333333 -1.5088 -0.5390222222222223 0.3112 -0.8711111111111111 0.8864 -0.8711111111111111 1.5088" stroke-width="0.8889"></path>
  <path fill="#a0041e" d="M17.741333333333333 26.017777777777777c0 1.3411555555555554 1.451911111111111 2.179377777777778 2.6133333333333333 1.5088 0.5390222222222223 -0.3112 0.8711111111111111 -0.8864 0.8711111111111111 -1.5088 0 -1.3411555555555554 -1.4518222222222221 -2.179377777777778 -2.6133333333333333 -1.5088 -0.5390222222222223 0.3112 -0.8711111111111111 0.8864 -0.8711111111111111 1.5088" stroke-width="0.8889"></path>
  <path fill="#414042" d="M10.773333333333332 1.6266666666666667H5.546666666666667c-0.4808888888888889 0 -0.8711111111111111 0.3902222222222222 -0.8711111111111111 0.8711111111111111v2.6133333333333333h6.9688888888888885V2.497777777777778c0 -0.4808888888888889 -0.3902222222222222 -0.8711111111111111 -0.8711111111111111 -0.8711111111111111Z" stroke-width="0.8889"></path>
  <path fill="#be1931" d="M20.355555555555554 5.111111111111111h10.453333333333333v15.68H20.355555555555554Z" stroke-width="0.8889"></path>
  <path fill="#a0041e" d="M31.68 4.239999999999999c0 0.4808888888888889 -0.38942222222222217 0.8711111111111111 -0.8711111111111111 0.8711111111111111H20.355555555555554c-0.4816888888888889 0 -0.8711111111111111 -0.3902222222222222 -0.8711111111111111 -0.8711111111111111s0.38942222222222217 -0.8711111111111111 0.8711111111111111 -0.8711111111111111h10.453333333333333c0.4816888888888889 0 0.8711111111111111 0.3902222222222222 0.8711111111111111 0.8711111111111111Z" stroke-width="0.8889"></path>
  <path fill="#ea596e" d="M22.097777777777775 14.693333333333333h6.9688888888888885v4.355555555555556h-6.9688888888888885Z" stroke-width="0.8889"></path>
  <path fill="#f4900c" d="M26.453333333333333 26.888888888888886h-6.9688888888888885c-0.11066666666666666 0 -0.22035555555555555 -0.020888888888888887 -0.3232 -0.06186666666666666L14.960799999999999 25.146666666666665H9.03111111111111c-0.4808888888888889 0 -0.8711111111111111 -0.38942222222222217 -0.8711111111111111 -0.8711111111111111s0.3902222222222222 -0.8711111111111111 0.8711111111111111 -0.8711111111111111h6.097777777777778c0.11146666666666667 0 0.22035555555555555 0.020888888888888887 0.32408888888888887 0.06186666666666666l4.198755555555556 1.6803555555555556H26.453333333333333c0.4816888888888889 0 0.8711111111111111 0.38942222222222217 0.8711111111111111 0.8711111111111111s-0.38942222222222217 0.8711111111111111 -0.8711111111111111 0.8711111111111111Z" stroke-width="0.8889"></path>
  <path fill="#55acee" d="M29.066666666666666 7.724444444444444c0 -0.4808888888888889 -0.38942222222222217 -0.8711111111111111 -0.8711111111111111 -0.8711111111111111h-5.226666666666667c-0.4816888888888889 0 -0.8711111111111111 0.3902222222222222 -0.8711111111111111 0.8711111111111111v4.355555555555556c0 0.4808888888888889 0.38942222222222217 0.8711111111111111 0.8711111111111111 0.8711111111111111h5.226666666666667c0.4816888888888889 0 0.8711111111111111 -0.3902222222222222 0.8711111111111111 -0.8711111111111111v-4.355555555555556Z" stroke-width="0.8889"></path>
</svg>